<?xml version="1.0" encoding="UTF-8"?><svg id="_レイヤー_2" xmlns="http://www.w3.org/2000/svg" xmlns:xlink="http://www.w3.org/1999/xlink" viewBox="0 0 555.34 108.01"><defs><style>.cls-1{fill:#f5d92b;}.cls-2{filter:url(#drop-shadow-1);}.cls-3{fill:#231815;}</style><filter id="drop-shadow-1" filterUnits="userSpaceOnUse"><feOffset dx="2.83" dy="0"/><feGaussianBlur result="blur" stdDeviation="0"/><feFlood flood-color="#fff" flood-opacity="1"/><feComposite in2="blur" operator="in"/><feComposite in="SourceGraphic"/></filter></defs><g id="_レイヤー_1-2"><circle class="cls-1" cx="368.16" cy="51.56" r="12.51"/><circle class="cls-1" cx="227.74" cy="48.24" r="12.51"/><circle class="cls-1" cx="62.29" cy="51.56" r="12.51"/><g class="cls-2"><path class="cls-3" d="M5.47,69.27c0,1.51-1.22,2.74-2.74,2.74s-2.74-1.22-2.74-2.74V23.69c0-1.51,1.22-2.74,2.74-2.74s2.74,1.22,2.74,2.74v45.58ZM36.22,23.83v45.72c0,1.44-1.15,2.66-2.66,2.66s-2.66-1.22-2.66-2.66v-20.95c0-.29-.22-.5-.58-.5H11.67c-1.44,0-2.66-1.22-2.66-2.74s1.22-2.66,2.66-2.66H30.31c.36,0,.58-.22,.58-.5V23.83c0-1.44,1.22-2.66,2.66-2.66,1.51,0,2.66,1.22,2.66,2.66Z"/><path class="cls-3" d="M51.05,52.42c.22,9.29,5.11,13.75,12.1,13.68,5.76,0,9.5-3.82,9.58-9.79v-20.02c0-1.58,1.15-2.81,2.74-2.81s2.88,1.22,2.88,2.81v23.26c-.14,2.3,.07,4.32,.79,5.18,.43,.43,1.73,1.08,2.95,1.22,1.37,.14,2.59,.58,2.59,2.02s-1.22,2.74-2.66,2.88c-4.32,.22-6.84-2.3-7.71-4.1-.07-.22-.43-.22-.58-.07-2.38,2.74-5.83,4.46-10.23,4.54-11.45,.43-17.28-7.06-17.64-18.07-.58-13.18,7.99-19.3,16.42-19.44,1.87,0,3.46,0,5.4,.65,1.51,.5,2.59,1.66,2.38,3.24-.14,1.37-1.51,2.16-2.81,1.8-1.15-.36-3.1-.65-4.75-.58-5.18,.22-11.45,3.89-11.45,13.61Z"/><path class="cls-3" d="M124.63,52.71c-.14,12.46-7.34,18.87-15.99,18.72-2.09,0-3.96-.36-5.76-1.15-1.51-.65-2.38-2.3-1.87-3.89,.43-1.3,2.02-1.94,3.31-1.37,1.51,.65,3.17,1.08,4.18,1.08,7.2,0,10.44-6.84,10.44-13.54,0-7.85-3.6-13.39-10.66-13.39-3.82,0-9.43,2.95-9.43,4.97v36.22c0,1.58-1.3,2.81-2.81,2.81s-2.81-1.22-2.81-2.81V36.15c0-1.66,1.37-2.95,3.02-2.95,1.51,0,2.74,1.44,2.66,2.88,0,.22,.22,.58,.36,.5,3.02-2.16,5.54-2.88,9.22-2.88,8.42-.14,16.35,6.7,16.13,19.01Z"/><path class="cls-3" d="M164.09,52.71c-.14,12.46-7.34,18.87-15.99,18.72-2.09,0-3.96-.36-5.76-1.15-1.51-.65-2.38-2.3-1.87-3.89,.43-1.3,2.02-1.94,3.31-1.37,1.51,.65,3.17,1.08,4.18,1.08,7.2,0,10.44-6.84,10.44-13.54,0-7.85-3.6-13.39-10.66-13.39-3.82,0-9.43,2.95-9.43,4.97v36.22c0,1.58-1.3,2.81-2.81,2.81s-2.81-1.22-2.81-2.81V36.15c0-1.66,1.37-2.95,3.02-2.95,1.51,0,2.74,1.44,2.67,2.88,0,.22,.22,.58,.36,.5,3.02-2.16,5.54-2.88,9.22-2.88,8.42-.14,16.35,6.7,16.13,19.01Z"/><path class="cls-3" d="M185.9,64.37c-.79,.72-3.31,1.08-4.1-.79l-10.87-27.51c-.43-1.3,.72-2.52,2.09-2.59,2.09-.07,3.24,.79,3.89,2.3l9.65,25.27c.79,2.16-.65,3.31-.65,3.31Zm18.72-28.23c-3.02,8.71-12.38,35.5-12.38,35.5-1.8,4.68-4.39,9.15-10.73,10.73-1.3,.36-3.67-.5-3.74-2.52-.07-1.8,1.37-1.94,3.31-2.81,3.31-1.58,4.18-3.02,6.05-7.7l11.67-33.55c.58-1.58,1.94-2.38,3.67-2.38,1.37,0,2.59,1.37,2.16,2.74Z"/><path class="cls-3" d="M236.95,66.82c.07-.22-.22-.29-.36-.14-2.59,2.81-5.76,3.46-9.65,3.46-9.86-.14-15.55-6.77-15.55-18.72s6.19-17.14,14.62-17.86c1.8-.14,3.6-.07,5.33,.29,1.44,.29,2.45,1.73,2.23,3.24-.14,1.3-1.44,2.09-2.66,1.8-1.58-.43-3.17-.5-4.68-.29-5.04,.07-9.58,4.25-9.43,12.6,.14,8.57,3.31,13.25,10.22,13.47,6.77,.43,9.58-3.17,9.72-10.01v-18.22c0-1.51,1.22-2.81,2.74-2.81s2.81,1.3,2.81,2.81v30.67c.29,9.07-4.61,15.77-14.83,16.06-2.74,0-6.26-.5-8.93-1.44-1.66-.58-2.81-2.38-2.45-4.03,.29-1.37,1.94-2.09,3.24-1.58,2.59,1.01,5.76,1.51,7.99,1.66,6.48,.29,9.5-4.39,9.65-10.94Z"/><path class="cls-3" d="M265.6,48.31h12.24c.29,0,.58-.29,.5-.58-.58-5.69-4.03-9-9.79-9-8.42,0-11.67,6.41-11.95,12.39-.36,8.93,3.67,15.62,12.39,15.62,3.96,0,7.27-1.87,8.64-5.04,.86-2.09,1.44-2.59,3.46-2.45,1.44,.14,2.59,1.8,2.16,3.24-1.66,5.76-6.26,9.65-14.4,9.65-9.94,.07-18.51-7.06-17.93-21.24,.5-10.8,7.78-17.71,17.71-17.43,10.22,.07,15.19,7.27,15.55,16.42,.07,2.09-1.51,3.74-3.6,3.74h-15.12c-1.44,0-2.74-1.22-2.74-2.66,.07-1.51,1.37-2.66,2.88-2.66Z"/><path class="cls-3" d="M297.93,68.91c0,1.51-1.22,2.66-2.74,2.66s-2.66-1.15-2.66-2.66V36.43c0-1.51,1.22-2.74,2.66-2.74,1.51,0,2.74,1.22,2.74,2.74v32.47Zm18.22-21.53c.29-5.4-2.3-8.71-7.27-8.78-2.23,0-3.53,.79-6.41,2.09-1.08,.5-3.24-.36-3.53-1.66-.36-1.73,.79-2.81,2.38-3.6,3.38-1.73,6.77-2.02,7.63-1.94,7.85,.14,12.53,4.46,12.75,13.75v21.6c0,1.51-1.22,2.74-2.81,2.74s-2.74-1.22-2.74-2.74v-21.46Z"/><path class="cls-3" d="M339.48,22.97v4.18c0,1.51-1.22,2.74-2.74,2.74s-2.81-1.22-2.81-2.74v-4.18c0-1.51,1.22-2.74,2.81-2.74s2.74,1.22,2.74,2.74Zm0,13.54v32.33c0,1.51-1.22,2.74-2.74,2.74s-2.81-1.22-2.81-2.74V36.51c0-1.58,1.22-2.81,2.81-2.81s2.74,1.22,2.74,2.81Z"/><path class="cls-3" d="M382.97,61.2c-1.51,6.26-6.34,10.01-14.19,10.23-10.44-.22-17.07-8.14-16.92-20.02,0-11.59,7.27-18.22,16.92-17.93,6.55,0,12.03,2.88,13.75,9.58,.36,1.51-.86,3.24-2.59,3.17-1.66,0-2.38-1.08-2.74-2.16-1.15-4.1-5.69-5.62-8.42-5.54-9.07,.07-11.52,7.27-11.52,13.25,0,10.08,6.05,14.11,11.23,14.33,2.66-.07,7.78-.79,9.14-5.47,.29-1.01,1.08-2.38,3.02-2.45,.94,0,2.74,1.15,2.3,3.02Z"/><path class="cls-3" d="M423.35,68.69c.79-.36,1.58-.65,2.16-1.01,1.44-.79,3.24-.65,4.18,.58,1.08,1.22,.72,3.31-.65,4.18-1.01,.65-2.09,1.22-3.38,1.66-1.58,.58-3.31-.14-3.89-1.73-.58-1.44,.07-3.1,1.58-3.67Zm21.75-24.19c1.58,0,2.88,1.3,2.88,2.88s-1.3,2.88-2.88,2.88h-18.22c-1.58,0-2.88-1.3-2.88-2.88s1.3-2.88,2.88-2.88h18.22Zm-5.83-20.45c0,.29,.22,.5,.58,.5h5.26c1.66,0,3.02,1.37,3.02,3.02s-1.37,2.95-3.02,2.95h-17.79c-1.58,0-2.95-1.37-2.95-2.95s1.37-3.02,2.95-3.02h5.54c.29,0,.58-.22,.58-.5,0-.79,0-2.16-.07-3.24,0-1.58,1.37-2.95,2.95-2.95s2.95,1.37,2.95,2.95v3.24Zm.43,33.99c0,.29,.22,.5,.5,.5h4.82c1.58,0,2.88,1.37,2.88,2.95s-1.3,2.95-2.88,2.95h-4.82c-.29,0-.5,.22-.5,.5v9.43c0,1.66-1.37,2.95-3.02,2.95s-2.95-1.3-2.95-2.95v-9.43c0-.29-.22-.5-.5-.5h-5.47c-1.58,0-2.88-1.3-2.88-2.95s1.3-2.95,2.88-2.95h5.47c.29,0,.5-.22,.5-.5v-1.87c0-1.66,1.37-3.02,2.95-3.02s3.02,1.37,3.02,3.02v1.87Zm-7.06-22.32c1.01,1.37,.72,3.24-.65,4.18-1.3,.94-3.1,.58-4.1-.65-.29-.43-.58-.86-.86-1.22-1.01-1.15-.72-2.95,.65-3.82,1.37-.94,3.24-.65,4.32,.65,.22,.29,.43,.58,.65,.86Zm13.1,2.74c-.36,.5-.72,.94-1.15,1.3-1.15,1.3-3.1,1.37-4.39,.22-1.44-1.22-1.01-3.1-.22-3.89,.29-.29,.5-.58,.72-.86,1.01-1.3,2.88-1.66,4.25-.79,1.44,.86,1.8,2.74,.79,4.03Zm3.02,30.17c1.51,.5,2.23,2.23,1.73,3.74-.5,1.58-2.16,2.3-3.75,1.8-1.15-.43-2.38-.86-3.31-1.44-1.37-.79-1.58-2.88-.65-4.18,.94-1.22,2.74-1.37,4.18-.65,.58,.22,1.15,.5,1.8,.72Zm39.17-26.71c1.66,0,3.02,1.3,3.02,2.95s-1.37,2.95-3.02,2.95h-3.53c-.29,0-.5,.22-.5,.5v27.94c0,1.66-1.3,2.95-2.95,2.95s-2.95-1.3-2.95-2.95v-28.08c0-.29-.22-.58-.5-.58h-8.71c-.29,0-.58,.29-.58,.58-.43,4.82-1.58,11.31-3.67,16.13-.72,1.73-2.45,2.81-4.39,2.59-1.51-.14-2.38-1.66-1.8-3.1,4.03-10.51,4.03-12.96,4.25-21.6,.14-5.11,0-9.72-.29-13.39-.14-2.09,1.3-3.82,3.31-4.18,6.19-.94,8.78-1.44,15.91-3.67,1.51-.5,3.17,.29,3.74,1.8s-.29,3.17-1.8,3.67c-4.46,1.44-9.22,2.23-14.69,3.1-.29,.07-.5,.29-.5,.65,.07,2.81,.22,7.63,.22,11.16,0,.29,.22,.58,.5,.58h18.94Z"/><path class="cls-3" d="M514.15,45c-3.31,2.66-7.78,4.9-12.82,7.27-1.58,.72-3.74,.58-4.75-.94-.72-1.08-.86-3.17,1.3-4.18,4.32-1.94,8.14-3.82,11.67-6.62,1.37-1.08,3.46-1.22,4.75,0,1.3,1.15,1.22,3.38-.14,4.46Zm-5.62-19.3c-.86,1.94-2.02,4.97-3.6,6.98-1.08,1.44-3.1,1.8-4.61,.86-1.37-.94-1.73-3.02-.72-4.32,1.37-1.73,2.3-4.18,3.17-5.98,.79-1.51,2.59-2.23,4.18-1.58s2.3,2.45,1.58,4.03Zm-2.23,30.03c0-1.66,1.37-3.02,3.02-3.02s2.95,1.37,2.95,3.02v18.58c0,1.66-1.37,2.95-2.95,2.95s-3.02-1.3-3.02-2.95v-18.58Zm25.35-37.23v3.53c0,.29,.29,.58,.58,.58h18c2.02,0,3.6,1.58,3.6,3.6v5.76c0,1.58-1.3,2.88-2.95,2.88s-2.88-1.3-2.88-2.88v-2.88c0-.36-.29-.58-.58-.58h-33.63c-1.58,0-2.95-1.3-2.95-2.95s1.37-2.95,2.95-2.95h10.66c.29,0,.58-.29,.58-.58v-3.53c0-1.87,1.44-3.31,3.31-3.31s3.31,1.44,3.31,3.31Zm20.67,25.92h-21.82c-1.66,0-2.95-1.3-2.95-2.95s1.3-2.95,2.95-2.95h21.82c1.66,0,3.02,1.3,3.02,2.95s-1.37,2.95-3.02,2.95Zm-22.39,12.39c0-2.02,1.66-3.6,3.6-3.6h16.63c2.02,0,3.6,1.58,3.6,3.6v18c0,2.02-1.58,3.6-3.6,3.6h-16.63c-1.94,0-3.6-1.58-3.6-3.6v-18Zm5.76,15.34c0,.29,.29,.5,.58,.5h11.02c.29,0,.58-.22,.58-.5v-3.1c0-.29-.29-.58-.58-.58h-5.04c-1.58,0-2.88-1.22-2.88-2.81s1.3-2.88,2.88-2.88h5.04c.29,0,.58-.29,.58-.58v-2.59c0-.29-.29-.5-.58-.5h-11.02c-.29,0-.58,.22-.58,.5v12.53Zm3.46-25.49c.79-1.37,2.52-1.87,3.96-1.22,1.44,.65,1.94,2.38,1.22,3.74-.36,.65-.72,1.22-1.08,1.8-1.01,1.44-2.74,1.94-4.32,1.08-1.37-.79-1.73-2.59-.79-3.74,.5-.65,.65-1.15,1.01-1.66Z"/></g><circle class="cls-1" cx="529.53" cy="5.45" r="5.45"/><circle class="cls-1" cx="457.27" cy="5.45" r="5.45"/><g><path class="cls-3" d="M12.27,98.98c-.04,.11-.13,.17-.31,.19-.49,2.84-1.42,5.88-2.87,7.71-.23-.16-.56-.3-.8-.41,1.44-1.75,2.35-4.69,2.77-7.76l1.21,.26Zm3.78-.38c1.32,2.23,2.75,5.75,3.27,7.88l-.88,.35c-.54-2.11-1.93-5.71-3.21-7.88l.82-.35Z"/><path class="cls-3" d="M24.93,100.39c.36,.73,.76,1.88,.9,2.58l-.67,.18c-.14-.7-.52-1.79-.88-2.55l.65-.2Zm7.16,.08c-.02,.11-.14,.13-.25,.12-.94,3.5-2.7,5.65-5.6,6.82-.1-.14-.31-.42-.47-.55,2.87-1.13,4.51-3.09,5.39-6.67l.94,.28Zm-4.25-.66c.25,.8,.48,1.95,.56,2.72l-.71,.13c-.07-.77-.3-1.87-.56-2.7l.71-.16Z"/><path class="cls-3" d="M44.43,106.29c.48,0,1.76-.06,2.52-.18,.01,.26,.02,.6,.05,.86-.79,.1-1.99,.13-2.48,.13h-3c-1.81,0-2.69-.78-2.69-2.49v-7l1.18,.07c-.02,.12-.11,.19-.32,.23v3.9c1.83-.58,4.39-1.54,5.95-2.37l.61,.83s-.08,.04-.13,.04c-.06,0-.12-.01-.18-.04-1.45,.73-4.19,1.75-6.25,2.36v2c0,1.22,.59,1.67,1.82,1.67h2.93Zm2.49-9.56c.74,0,1.34,.6,1.34,1.34s-.6,1.34-1.34,1.34-1.35-.6-1.35-1.34,.64-1.34,1.35-1.34Zm.94,1.34c0-.53-.42-.96-.94-.96s-.95,.43-.95,.96,.42,.96,.95,.96,.94-.46,.94-.96Z"/><path class="cls-3" d="M51.94,101.77h10.01v.85h-9.56c-.07,.12-.23,.2-.38,.23l-.07-1.08Z"/><path class="cls-3" d="M66.82,100.67c1.08,.24,2.42,.7,3.23,1.08l-.36,.76c-.79-.38-2.17-.86-3.23-1.1l.36-.73Zm.72,5.86c3.85-1.3,6.57-3.41,8.16-6.98,.18,.16,.54,.42,.73,.54-1.61,3.54-4.45,5.79-8.07,7.08,.04,.11-.04,.25-.13,.3l-.68-.94Zm.6-8.84c1.08,.29,2.4,.77,3.21,1.18l-.4,.73c-.85-.43-2.1-.91-3.18-1.21l.36-.7Zm5.61-.4c.49,.42,1.18,1.16,1.55,1.74l-.47,.35c-.34-.52-1.03-1.32-1.52-1.75l.44-.34Zm1.67-.73c.49,.42,1.17,1.18,1.56,1.73l-.47,.35c-.36-.53-1.03-1.3-1.52-1.73l.43-.35Z"/><path class="cls-3" d="M89.08,100.55v.7h-2.95v4.71h3.62v.7h-8.01v-.7h3.62v-4.71h-2.93v-.7h6.64Z"/><path class="cls-3" d="M105.1,105.49v.82h-9.89v-.82h9.89Zm-1.17-6.58v.83h-7.45v-.83h7.45Z"/><path class="cls-3" d="M111.33,100.39c.36,.73,.75,1.88,.9,2.58l-.67,.18c-.14-.7-.52-1.79-.88-2.55l.65-.2Zm7.16,.08c-.02,.11-.14,.13-.25,.12-.94,3.5-2.7,5.65-5.6,6.82-.1-.14-.31-.42-.47-.55,2.87-1.13,4.51-3.09,5.39-6.67l.93,.28Zm-4.25-.66c.25,.8,.48,1.95,.56,2.72l-.71,.13c-.07-.77-.3-1.87-.56-2.7l.71-.16Z"/><path class="cls-3" d="M133.2,99.46c-.05,.06-.11,.12-.18,.17-1.26,3.89-3.23,6.38-6.54,8.06-.14-.2-.37-.48-.61-.66,3.14-1.52,5.08-3.92,6.08-7.1h-4.28c-.7,1.08-1.62,2.12-2.69,2.96-.17-.17-.44-.4-.68-.55,1.63-1.26,3.01-3.09,3.83-5.21l1.14,.32c-.05,.12-.19,.16-.35,.16-.24,.53-.49,1.03-.77,1.51h4.22l.14-.07,.68,.41Z"/><path class="cls-3" d="M141.1,104c.44,.31,1.7,1.33,2,1.6l-.48,.61c-.28-.31-.98-.97-1.52-1.45v3.23h-.79v-3.31c-.58,.95-1.32,1.83-1.99,2.36-.13-.19-.37-.46-.54-.59,.85-.56,1.79-1.69,2.38-2.79h-2.15v-.71h2.3v-1.27h-2.46v-.71h1.48c-.06-.52-.26-1.27-.52-1.85l.65-.18c.28,.6,.5,1.38,.56,1.9l-.44,.13h2.01c-.16-.06-.32-.12-.34-.12,.24-.53,.53-1.37,.67-1.94l.91,.29c-.02,.07-.11,.11-.24,.12-.17,.47-.46,1.16-.7,1.66h1.75v.71h-2.43s-.07,.02-.12,.02v1.25h2.38v.71h-2.38v.35Zm2.3-5.82v.7h-5.31v-.7h2.22v-1.34l1.02,.06c-.01,.08-.07,.14-.23,.17v1.12h2.3Zm5.59,2.78v.76h-1.42v6.26h-.79v-6.26h-1.9v.44c0,1.8-.23,4.17-1.96,5.84-.1-.18-.37-.46-.56-.56,1.57-1.51,1.75-3.59,1.75-5.29v-4.17l.59,.19c1.25-.36,2.59-.85,3.35-1.3l.8,.61s-.12,.06-.25,.04c-.89,.44-2.36,.94-3.72,1.27v2.17h4.1Z"/><path class="cls-3" d="M153.82,108v-5.11c-.42,.58-.85,1.12-1.31,1.55-.1-.17-.35-.48-.5-.62,1.08-1.01,2.15-2.7,2.81-4.39l.95,.32c-.02,.08-.12,.13-.26,.12-.28,.66-.62,1.33-1,1.97l.31,.1c-.01,.08-.08,.14-.23,.17v5.9h-.77Zm-.24-9.27v1.29h-.79v-2.04h4.58v-1.15l1.07,.07c-.01,.08-.08,.14-.24,.16v.92h4.7v1.91h-.82v-1.16h-8.5Zm9.63,2.19h-3.42c-.1,.37-.24,.88-.38,1.32h3.11v5.72h-.8v-.43h-4.44v.46h-.77v-5.75h2.12c.11-.41,.23-.89,.32-1.32h-3.18v-.73h7.44v.73Zm-1.5,3.55v-1.52h-4.44v1.52h4.44Zm-4.44,2.34h4.44v-1.66h-4.44v1.66Z"/><path class="cls-3" d="M167.84,107.31c-.37-.86-.52-2.65-.52-4.22s.25-3.6,.65-5.6l1.16,.23c-.02,.12-.14,.2-.31,.22-.43,1.64-.7,3.78-.7,5.17,0,.91,.01,1.82,.11,2.27,.26-.72,.74-1.87,1-2.43l.54,.5c-.4,.82-1.24,2.64-1.24,3.2,0,.17,.04,.35,.12,.58l-.82,.1Zm3.05-7.06c1.01,.01,2.02,.02,3.02-.05-.05-1.03-.08-1.92-.11-2.81l1.21,.04c-.01,.12-.12,.22-.31,.25,.01,.77,.04,1.55,.06,2.46,.95-.1,1.71-.26,2.35-.48l.11,.84c-.58,.18-1.4,.35-2.42,.43,.05,1.33,.11,2.73,.14,3.5,.91,.37,1.82,.96,2.45,1.52l-.47,.77c-.49-.49-1.2-1.02-1.94-1.37-.01,1.02-.2,2.16-2,2.16-1.4,0-2.34-.67-2.34-1.73,0-1.22,1.23-1.76,2.34-1.76,.37,0,.77,.05,1.14,.16-.04-.76-.11-2.01-.17-3.19-.37,.02-.88,.04-1.22,.04h-1.82v-.78Zm3.27,4.71c-.38-.12-.79-.22-1.19-.22-.73,0-1.61,.26-1.61,1.02,0,.67,.72,1.01,1.59,1.01s1.21-.43,1.21-1.39v-.42Z"/><path class="cls-3" d="M190.61,106.75c-1.05,.19-2.45,.28-3.65,.28-1.01,0-1.88-.06-2.35-.16-1.45-.32-2.08-1.23-2.08-2.29,0-.92,.52-1.85,1.22-2.57l.7,.36c-.67,.7-1.06,1.46-1.06,2.13s.47,1.33,1.5,1.56c.42,.1,1.13,.14,1.96,.14,1.16,0,2.55-.1,3.69-.32l.06,.86Zm-5.38-6.06c.62-.48,1.48-1.07,2.12-1.39h0c-.91,.1-3,.14-4.33,.13,0-.23,0-.62-.01-.84,.26,.01,4.87,.08,6.84-.38l.1,.89c-1.43,.17-3.26,1.42-4.03,2.03l-.68-.43Z"/><path class="cls-3" d="M204.94,99.26c-1.56,.4-3.73,.65-5.16,.7-.16,1.5-.37,2.73-.56,3.18,.94-.76,2.39-1.27,3.41-1.27,1.79,0,2.88,.96,2.88,2.58,0,2.39-2.41,3.19-6.31,3.29-.05-.23-.13-.59-.24-.79,3.44-.07,5.67-.66,5.67-2.47,0-1.08-.72-1.82-2.11-1.82-1.07,0-2.9,.65-3.69,1.84l-.84-.4c.38-.43,.78-2.15,.96-4.11h-2.81v-.84c.5,.01,1.98,.01,2.88,.01,.05-.68,.07-1.45,.07-2.17l1.27,.12c-.02,.2-.17,.24-.38,.26-.02,.6-.06,1.21-.11,1.78,1.27-.04,3.48-.31,4.92-.73l.16,.86Z"/><path class="cls-3" d="M213.11,99.42c-.05,.12-.14,.18-.31,.2-.1,1.77-.32,3.29-.49,3.54h.01c1.18-.88,3.01-1.48,4.41-1.48,1.85,0,3,.95,2.97,2.63-.04,2.21-1.86,3.19-6.5,3.38-.06-.23-.17-.56-.3-.79,4.19-.18,5.86-.86,5.9-2.58,.01-1.15-.79-1.85-2.19-1.85-2.22,0-4.22,1.33-4.56,1.92l-.82-.4c.24-.23,.66-2.37,.68-4.73l1.19,.14Zm.2-2.33c1.63,.19,3.48,.56,4.65,1.06l-.3,.83c-1.24-.53-3.02-.88-4.61-1.09l.25-.79Z"/></g></g></svg>