<?xml version="1.0" encoding="UTF-8"?><svg id="_レイヤー_2" xmlns="http://www.w3.org/2000/svg" xmlns:xlink="http://www.w3.org/1999/xlink" viewBox="0 0 577.58 83.17"><defs><style>.cls-1{fill:#f5d92b;}.cls-2{filter:url(#drop-shadow-1);}.cls-3{fill:#231815;}</style><filter id="drop-shadow-1" filterUnits="userSpaceOnUse"><feOffset dx="2.83" dy="0"/><feGaussianBlur result="blur" stdDeviation="0"/><feFlood flood-color="#fff" flood-opacity="1"/><feComposite in2="blur" operator="in"/><feComposite in="SourceGraphic"/></filter></defs><g id="_レイヤー_1-2"><circle class="cls-1" cx="388.71" cy="51.56" r="12.51"/><circle class="cls-1" cx="285.95" cy="51.56" r="12.51"/><circle class="cls-1" cx="62.29" cy="51.56" r="12.51"/><circle class="cls-1" cx="551.82" cy="5.45" r="5.45"/><circle class="cls-1" cx="479.65" cy="5.45" r="5.45"/><g class="cls-2"><path class="cls-3" d="M5.47,69.27c0,1.51-1.22,2.74-2.74,2.74s-2.74-1.22-2.74-2.74V23.69c0-1.51,1.22-2.74,2.74-2.74s2.74,1.22,2.74,2.74v45.58ZM36.22,23.83v45.72c0,1.44-1.15,2.66-2.66,2.66s-2.66-1.22-2.66-2.66v-20.95c0-.29-.22-.5-.58-.5H11.67c-1.44,0-2.66-1.22-2.66-2.74s1.22-2.66,2.66-2.66H30.31c.36,0,.58-.22,.58-.5V23.83c0-1.44,1.22-2.66,2.66-2.66,1.51,0,2.66,1.22,2.66,2.66Z"/><path class="cls-3" d="M51.05,52.42c.22,9.29,5.11,13.75,12.1,13.68,5.76,0,9.5-3.82,9.58-9.79v-20.02c0-1.58,1.15-2.81,2.74-2.81s2.88,1.22,2.88,2.81v23.26c-.14,2.3,.07,4.32,.79,5.18,.43,.43,1.73,1.08,2.95,1.22,1.37,.14,2.59,.58,2.59,2.02s-1.22,2.74-2.66,2.88c-4.32,.22-6.84-2.3-7.71-4.1-.07-.22-.43-.22-.58-.07-2.38,2.74-5.83,4.46-10.23,4.54-11.45,.43-17.28-7.06-17.64-18.07-.58-13.18,7.99-19.3,16.42-19.44,1.87,0,3.46,0,5.4,.65,1.51,.5,2.59,1.66,2.38,3.24-.14,1.37-1.51,2.16-2.81,1.8-1.15-.36-3.1-.65-4.75-.58-5.18,.22-11.45,3.89-11.45,13.61Z"/><path class="cls-3" d="M124.63,52.71c-.14,12.46-7.34,18.87-15.99,18.72-2.09,0-3.96-.36-5.76-1.15-1.51-.65-2.38-2.3-1.87-3.89,.43-1.3,2.02-1.94,3.31-1.37,1.51,.65,3.17,1.08,4.18,1.08,7.2,0,10.44-6.84,10.44-13.54,0-7.85-3.6-13.39-10.66-13.39-3.82,0-9.43,2.95-9.43,4.97v36.22c0,1.58-1.3,2.81-2.81,2.81s-2.81-1.22-2.81-2.81V36.15c0-1.66,1.37-2.95,3.02-2.95,1.51,0,2.74,1.44,2.66,2.88,0,.22,.22,.58,.36,.5,3.02-2.16,5.54-2.88,9.22-2.88,8.42-.14,16.35,6.7,16.13,19.01Z"/><path class="cls-3" d="M164.09,52.71c-.14,12.46-7.34,18.87-15.99,18.72-2.09,0-3.96-.36-5.76-1.15-1.51-.65-2.38-2.3-1.87-3.89,.43-1.3,2.02-1.94,3.31-1.37,1.51,.65,3.17,1.08,4.18,1.08,7.2,0,10.44-6.84,10.44-13.54,0-7.85-3.6-13.39-10.66-13.39-3.82,0-9.43,2.95-9.43,4.97v36.22c0,1.58-1.3,2.81-2.81,2.81s-2.81-1.22-2.81-2.81V36.15c0-1.66,1.37-2.95,3.02-2.95,1.51,0,2.74,1.44,2.67,2.88,0,.22,.22,.58,.36,.5,3.02-2.16,5.54-2.88,9.22-2.88,8.42-.14,16.35,6.7,16.13,19.01Z"/><path class="cls-3" d="M185.9,64.37c-.79,.72-3.31,1.08-4.1-.79l-10.87-27.51c-.43-1.3,.72-2.52,2.09-2.59,2.09-.07,3.24,.79,3.89,2.3l9.65,25.27c.79,2.16-.65,3.31-.65,3.31Zm18.72-28.23c-3.02,8.71-12.38,35.5-12.38,35.5-1.8,4.68-4.39,9.15-10.73,10.73-1.3,.36-3.67-.5-3.74-2.52-.07-1.8,1.37-1.94,3.31-2.81,3.31-1.58,4.18-3.02,6.05-7.7l11.67-33.55c.58-1.58,1.94-2.38,3.67-2.38,1.37,0,2.59,1.37,2.16,2.74Z"/><path class="cls-3" d="M238.61,47.23v21.6c0,1.51-1.22,2.74-2.81,2.74s-2.74-1.22-2.74-2.74v-21.31c0-5.98-2.09-8.57-7.06-8.57-2.3,0-4.68,.72-6.62,1.94-.29,.22-.5,.5-.5,.86v27.07c0,1.51-1.22,2.74-2.74,2.74s-2.74-1.22-2.74-2.74V34.27c0-1.51,1.22-2.74,2.74-2.74s2.74,1.44,2.74,2.95v.5c0,.22,.29,.43,.5,.29,2.23-1.01,4.46-1.8,6.77-1.8,7.2,0,12.46,3.89,12.46,13.75Zm22.25,0v21.6c0,1.51-1.3,2.74-2.81,2.74s-2.81-1.22-2.81-2.74v-21.31c0-7.27-3.53-8.57-6.19-8.78-1.87-.07-4.68,.65-6.55,1.44-1.3,.5-3.02-.14-3.38-1.44-.5-1.8,.14-3.02,2.16-3.82,2.09-.86,5.18-1.44,7.34-1.37,7.63,.22,12.24,5.33,12.24,13.68Z"/><path class="cls-3" d="M303.33,54c-.72,10.66-5.26,17.79-17.07,17.79-9.87-.22-15.99-7.34-16.35-18.72-.29-14.33,7.7-19.95,16.35-20.09,2.45-.14,5.26,.43,7.56,1.37,2.45,.94,2.59,2.88,2.3,4.03-.29,1.3-2.02,1.94-3.17,1.37-1.66-.86-4.39-1.44-6.41-1.44-7.78,.22-11.38,5.33-11.16,14.26,.14,6.55,2.3,13.68,11.02,14.04,8.35,.22,11.02-5.76,11.3-12.82,.07-1.87-.07-4.82-1.01-7.63-.43-1.22,.43-2.66,1.73-2.74,1.73-.14,3.24,.94,3.74,2.52,.86,2.81,1.22,5.83,1.15,8.06Z"/><path class="cls-3" d="M342.07,36.51l-11.67,32.04c-.58,1.73-2.23,2.88-4.1,2.88s-3.46-1.15-4.1-2.88l-11.95-32.26c-.5-1.3,.58-2.74,2.02-2.74,1.73,0,3.17,.65,3.82,2.23,2.3,6.48,8.42,23.69,10.01,28.15,.07,.14,.36,.14,.43,0,1.58-4.46,7.42-21.24,9.72-27.72,.58-1.58,1.44-2.45,3.89-2.45,1.44,0,2.45,1.44,1.94,2.74Z"/><path class="cls-3" d="M359.78,22.97v4.18c0,1.51-1.22,2.74-2.74,2.74s-2.81-1.22-2.81-2.74v-4.18c0-1.51,1.22-2.74,2.81-2.74s2.74,1.22,2.74,2.74Zm0,13.54v32.33c0,1.51-1.22,2.74-2.74,2.74s-2.81-1.22-2.81-2.74V36.51c0-1.58,1.22-2.81,2.81-2.81s2.74,1.22,2.74,2.81Z"/><path class="cls-3" d="M386.64,48.31h12.24c.29,0,.58-.29,.5-.58-.58-5.69-4.03-9-9.79-9-8.42,0-11.67,6.41-11.95,12.39-.36,8.93,3.67,15.62,12.39,15.62,3.96,0,7.27-1.87,8.64-5.04,.86-2.09,1.44-2.59,3.46-2.45,1.44,.14,2.59,1.8,2.16,3.24-1.66,5.76-6.26,9.65-14.4,9.65-9.94,.07-18.51-7.06-17.93-21.24,.5-10.8,7.78-17.71,17.71-17.43,10.22,.07,15.19,7.27,15.55,16.42,.07,2.09-1.51,3.74-3.6,3.74h-15.12c-1.44,0-2.74-1.22-2.74-2.66,.07-1.51,1.37-2.66,2.88-2.66Z"/><path class="cls-3" d="M445.6,68.69c.79-.36,1.58-.65,2.16-1.01,1.44-.79,3.24-.65,4.18,.58,1.08,1.22,.72,3.31-.65,4.18-1.01,.65-2.09,1.22-3.38,1.66-1.58,.58-3.31-.14-3.89-1.73-.58-1.44,.07-3.1,1.58-3.67Zm21.75-24.19c1.58,0,2.88,1.3,2.88,2.88s-1.3,2.88-2.88,2.88h-18.22c-1.58,0-2.88-1.3-2.88-2.88s1.3-2.88,2.88-2.88h18.22Zm-5.83-20.45c0,.29,.22,.5,.58,.5h5.26c1.66,0,3.02,1.37,3.02,3.02s-1.37,2.95-3.02,2.95h-17.79c-1.58,0-2.95-1.37-2.95-2.95s1.37-3.02,2.95-3.02h5.54c.29,0,.58-.22,.58-.5,0-.79,0-2.16-.07-3.24,0-1.58,1.37-2.95,2.95-2.95s2.95,1.37,2.95,2.95v3.24Zm.43,33.99c0,.29,.22,.5,.5,.5h4.82c1.58,0,2.88,1.37,2.88,2.95s-1.3,2.95-2.88,2.95h-4.82c-.29,0-.5,.22-.5,.5v9.43c0,1.66-1.37,2.95-3.02,2.95s-2.95-1.3-2.95-2.95v-9.43c0-.29-.22-.5-.5-.5h-5.47c-1.58,0-2.88-1.3-2.88-2.95s1.3-2.95,2.88-2.95h5.47c.29,0,.5-.22,.5-.5v-1.87c0-1.66,1.37-3.02,2.95-3.02s3.02,1.37,3.02,3.02v1.87Zm-7.06-22.32c1.01,1.37,.72,3.24-.65,4.18-1.3,.94-3.1,.58-4.1-.65-.29-.43-.58-.86-.86-1.22-1.01-1.15-.72-2.95,.65-3.82,1.37-.94,3.24-.65,4.32,.65,.22,.29,.43,.58,.65,.86Zm13.1,2.74c-.36,.5-.72,.94-1.15,1.3-1.15,1.3-3.1,1.37-4.39,.22-1.44-1.22-1.01-3.1-.22-3.89,.29-.29,.5-.58,.72-.86,1.01-1.3,2.88-1.66,4.25-.79,1.44,.86,1.8,2.74,.79,4.03Zm3.02,30.17c1.51,.5,2.23,2.23,1.73,3.74-.5,1.58-2.16,2.3-3.75,1.8-1.15-.43-2.38-.86-3.31-1.44-1.37-.79-1.58-2.88-.65-4.18,.94-1.22,2.74-1.37,4.18-.65,.58,.22,1.15,.5,1.8,.72Zm39.17-26.71c1.66,0,3.02,1.3,3.02,2.95s-1.37,2.95-3.02,2.95h-3.53c-.29,0-.5,.22-.5,.5v27.94c0,1.66-1.3,2.95-2.95,2.95s-2.95-1.3-2.95-2.95v-28.08c0-.29-.22-.58-.5-.58h-8.71c-.29,0-.58,.29-.58,.58-.43,4.82-1.58,11.31-3.67,16.13-.72,1.73-2.45,2.81-4.39,2.59-1.51-.14-2.38-1.66-1.8-3.1,4.03-10.51,4.03-12.96,4.25-21.6,.14-5.11,0-9.72-.29-13.39-.14-2.09,1.3-3.82,3.31-4.18,6.19-.94,8.78-1.44,15.91-3.67,1.51-.5,3.17,.29,3.74,1.8s-.29,3.17-1.8,3.67c-4.46,1.44-9.22,2.23-14.69,3.1-.29,.07-.5,.29-.5,.65,.07,2.81,.22,7.63,.22,11.16,0,.29,.22,.58,.5,.58h18.94Z"/><path class="cls-3" d="M536.4,45c-3.31,2.66-7.78,4.9-12.82,7.27-1.58,.72-3.74,.58-4.75-.94-.72-1.08-.86-3.17,1.3-4.18,4.32-1.94,8.14-3.82,11.67-6.62,1.37-1.08,3.46-1.22,4.75,0,1.3,1.15,1.22,3.38-.14,4.46Zm-5.62-19.3c-.86,1.94-2.02,4.97-3.6,6.98-1.08,1.44-3.1,1.8-4.61,.86-1.37-.94-1.73-3.02-.72-4.32,1.37-1.73,2.3-4.18,3.17-5.98,.79-1.51,2.59-2.23,4.18-1.58s2.3,2.45,1.58,4.03Zm-2.23,30.03c0-1.66,1.37-3.02,3.02-3.02s2.95,1.37,2.95,3.02v18.58c0,1.66-1.37,2.95-2.95,2.95s-3.02-1.3-3.02-2.95v-18.58Zm25.35-37.23v3.53c0,.29,.29,.58,.58,.58h18c2.02,0,3.6,1.58,3.6,3.6v5.76c0,1.58-1.3,2.88-2.95,2.88s-2.88-1.3-2.88-2.88v-2.88c0-.36-.29-.58-.58-.58h-33.63c-1.58,0-2.95-1.3-2.95-2.95s1.37-2.95,2.95-2.95h10.66c.29,0,.58-.29,.58-.58v-3.53c0-1.87,1.44-3.31,3.31-3.31s3.31,1.44,3.31,3.31Zm20.67,25.92h-21.82c-1.66,0-2.95-1.3-2.95-2.95s1.3-2.95,2.95-2.95h21.82c1.66,0,3.02,1.3,3.02,2.95s-1.37,2.95-3.02,2.95Zm-22.39,12.39c0-2.02,1.66-3.6,3.6-3.6h16.63c2.02,0,3.6,1.58,3.6,3.6v18c0,2.02-1.58,3.6-3.6,3.6h-16.63c-1.94,0-3.6-1.58-3.6-3.6v-18Zm5.76,15.34c0,.29,.29,.5,.58,.5h11.02c.29,0,.58-.22,.58-.5v-3.1c0-.29-.29-.58-.58-.58h-5.04c-1.58,0-2.88-1.22-2.88-2.81s1.3-2.88,2.88-2.88h5.04c.29,0,.58-.29,.58-.58v-2.59c0-.29-.29-.5-.58-.5h-11.02c-.29,0-.58,.22-.58,.5v12.53Zm3.46-25.49c.79-1.37,2.52-1.87,3.96-1.22,1.44,.65,1.94,2.38,1.22,3.74-.36,.65-.72,1.22-1.08,1.8-1.01,1.44-2.74,1.94-4.32,1.08-1.37-.79-1.73-2.59-.79-3.74,.5-.65,.65-1.15,1.01-1.66Z"/></g></g></svg>