<?xml version="1.0" encoding="UTF-8"?><svg id="_レイヤー_2" xmlns="http://www.w3.org/2000/svg" viewBox="0 0 606.76 202.55"><defs><style>.cls-1{fill:#fff;}.cls-2{fill:#f5d92b;}.cls-3{fill:#231815;}</style></defs><g id="_レイヤー_1-2"><circle class="cls-2" cx="536.67" cy="186.11" r="12.51"/><circle class="cls-2" cx="183.31" cy="186.11" r="12.51"/><circle class="cls-2" cx="85.02" cy="181.08" r="12.51"/><circle class="cls-2" cx="183.31" cy="140.23" r="5.45"/><circle class="cls-2" cx="444.25" cy="141.76" r="5.45"/><circle class="cls-2" cx="399.27" cy="177.76" r="12.51"/><g><g><path class="cls-1" d="M8.31,198.79c0,1.51-1.22,2.74-2.74,2.74s-2.74-1.22-2.74-2.74v-45.58c0-1.51,1.22-2.74,2.74-2.74s2.74,1.22,2.74,2.74v45.58Zm30.75-45.44v45.72c0,1.44-1.15,2.66-2.66,2.66s-2.66-1.22-2.66-2.66v-20.95c0-.29-.22-.5-.58-.5H14.5c-1.44,0-2.66-1.22-2.66-2.74s1.22-2.66,2.66-2.66h18.65c.36,0,.58-.22,.58-.5v-18.36c0-1.44,1.22-2.66,2.66-2.66,1.51,0,2.66,1.22,2.66,2.66Z"/><path class="cls-1" d="M55.54,199c0,1.51-1.22,2.74-2.74,2.74s-2.81-1.22-2.81-2.74v-45.58c0-1.51,1.3-2.74,2.81-2.74s2.74,1.22,2.74,2.74v45.58Z"/><path class="cls-1" d="M92.98,174.81h13.46c2.02,0,3.6,1.66,3.6,3.6v20.38c0,1.51-1.22,2.74-2.74,2.74s-2.74-1.44-2.74-2.95v-3.02c0-.14-.29-.29-.43-.14-3.31,4.18-8.57,6.62-15.26,6.62-16.92,0-22.9-13.1-22.47-27.36,.36-17.28,12.1-24.7,23.4-24.48,9.43,0,16.06,5.33,18.43,10.66,.58,1.37-.43,3.46-1.94,3.67-1.51,.14-2.95-.22-3.74-1.87-2.02-3.96-6.41-7.06-12.96-7.06-7.85-.22-16.92,4.32-17.64,18.94-.58,11.3,4.25,22.03,16.63,22.32,8.42,.36,15.05-5.76,15.99-14.83v-1.3c0-.29-.29-.5-.58-.5h-11.02c-1.44,0-2.66-1.22-2.66-2.74s1.22-2.66,2.66-2.66Z"/><path class="cls-1" d="M142.23,152.85l18.36,45.8c.79,1.73,0,3.46-1.8,3.82-2.16,.36-3.38-.36-4.03-2.09-1.3-3.17-3.82-10.01-4.46-11.67-.07-.29-.36-.5-.72-.5h-13.25c-1.51,0-2.74-1.22-2.74-2.74s1.22-2.81,2.74-2.81h11.09c.29,0,.5-.22,.36-.5-1.37-3.38-7.42-18.43-9.07-22.68-.07-.22-.36-.22-.43,0-1.94,4.97-11.74,31.61-15.12,40.18-.72,1.73-2.23,2.59-4.03,2.3-1.44-.29-2.45-1.94-1.94-3.31l18.22-45.72c.58-1.44,1.94-2.38,3.46-2.38s2.88,.94,3.38,2.3Z"/><path class="cls-1" d="M204.29,187.05c0,6.34-4.61,15.19-18.94,14.98-10.8,0-16.06-4.97-17.5-11.45-.36-1.51,1.22-3.02,2.74-3.02s2.45,1.44,3.1,2.88c1.8,4.1,5.26,6.55,11.59,6.84,10.37,.43,13.54-5.83,13.54-10.23,0-3.24-1.08-7.78-10.44-9.14-13.03-1.8-20.52-4.9-20.67-14.62,0-7.85,6.05-12.82,17.5-12.96,5.9,0,11.74,1.58,16.2,4.46,1.44,.86,2.09,2.52,1.58,4.1-.43,1.3-2.23,2.45-3.6,1.58-4.46-2.74-8.21-4.46-13.68-4.61-7.42-.36-12.31,2.09-12.46,7.06,0,5.18,3.96,7.85,15.7,9.5,10.01,1.44,15.55,6.84,15.34,14.62Z"/><path class="cls-1" d="M217.11,198.79c0,1.51-1.22,2.74-2.74,2.74s-2.74-1.22-2.74-2.74v-45.58c0-1.51,1.22-2.74,2.74-2.74s2.74,1.22,2.74,2.74v45.58Zm30.75-45.44v45.72c0,1.44-1.15,2.66-2.67,2.66s-2.66-1.22-2.66-2.66v-20.95c0-.29-.22-.5-.58-.5h-18.65c-1.44,0-2.66-1.22-2.66-2.74s1.22-2.66,2.66-2.66h18.65c.36,0,.58-.22,.58-.5v-18.36c0-1.44,1.22-2.66,2.66-2.66,1.51,0,2.67,1.22,2.67,2.66Z"/><path class="cls-1" d="M264.34,199c0,1.51-1.22,2.74-2.74,2.74s-2.81-1.22-2.81-2.74v-45.58c0-1.51,1.3-2.74,2.81-2.74s2.74,1.22,2.74,2.74v45.58Z"/><path class="cls-1" d="M371.62,153.49l-12.24,44.86c-.5,1.87-2.16,3.17-4.1,3.17s-3.74-1.22-4.46-3.02c-2.3-6.12-7.49-19.66-9-23.55-.07-.14-.36-.14-.43,0-1.51,3.82-6.77,17.28-9.14,23.33-.79,1.87-2.59,3.17-4.61,3.17s-3.74-1.37-4.25-3.31l-11.45-44.64c-.36-1.44,.94-2.81,2.38-2.81,1.66,0,3.17,.72,3.6,2.38,2.09,8.5,8.35,34.2,9.86,40.04,.07,.22,.29,.22,.36,0,1.8-4.46,7.27-18.43,9.58-24.19,.58-1.51,2.02-2.52,3.67-2.52s3.1,1.01,3.74,2.52c2.23,5.83,7.78,19.87,9.58,24.34,.07,.22,.29,.14,.36,0,1.58-5.76,8.42-31.9,10.73-40.4,.43-1.66,1.87-2.16,3.6-2.16,1.44,0,2.59,1.37,2.23,2.81Z"/><path class="cls-1" d="M404.31,152.85l18.36,45.8c.79,1.73,0,3.46-1.8,3.82-2.16,.36-3.38-.36-4.03-2.09-1.3-3.17-3.82-10.01-4.46-11.67-.07-.29-.36-.5-.72-.5h-13.25c-1.51,0-2.74-1.22-2.74-2.74s1.22-2.81,2.74-2.81h11.09c.29,0,.5-.22,.36-.5-1.37-3.38-7.42-18.43-9.07-22.68-.07-.22-.36-.22-.43,0-1.94,4.97-11.74,31.61-15.12,40.18-.72,1.73-2.23,2.59-4.03,2.3-1.44-.29-2.45-1.94-1.94-3.31l18.22-45.72c.58-1.44,1.94-2.38,3.46-2.38s2.88,.94,3.38,2.3Z"/><path class="cls-1" d="M436.63,199c0,1.51-1.22,2.74-2.81,2.74s-2.74-1.22-2.74-2.74v-45.58c0-1.51,1.22-2.74,2.74-2.74s2.81,1.22,2.81,2.74v45.58Zm29.38,2.45c-2.09,.79-3.1,.07-4.61-1.58l-20.38-23.04c-1.37-1.44-1.44-3.74,0-5.26l18.15-18.72c.94-.94,2.3-1.51,4.03-.86,1.3,1.01,1.66,2.88,.86,3.82-5.26,5.62-15.63,15.41-18,18-.22,.22-.22,.58,0,.79,2.59,2.74,15.19,16.71,20.88,22.68,1.51,1.51,.22,3.74-.94,4.18Z"/><path class="cls-1" d="M499.35,152.85l18.36,45.8c.79,1.73,0,3.46-1.8,3.82-2.16,.36-3.38-.36-4.03-2.09-1.3-3.17-3.82-10.01-4.46-11.67-.07-.29-.36-.5-.72-.5h-13.25c-1.51,0-2.74-1.22-2.74-2.74s1.22-2.81,2.74-2.81h11.09c.29,0,.5-.22,.36-.5-1.37-3.38-7.42-18.43-9.07-22.68-.07-.22-.36-.22-.43,0-1.94,4.97-11.74,31.61-15.12,40.18-.72,1.73-2.23,2.59-4.03,2.3-1.44-.29-2.45-1.94-1.94-3.31l18.22-45.72c.58-1.44,1.94-2.38,3.46-2.38s2.88,.94,3.38,2.3Z"/><path class="cls-1" d="M542.33,201.31h-12.6c-2.02,0-3.6-1.58-3.6-3.6v-44.28c0-1.51,1.22-2.74,2.74-2.74s2.81,1.22,2.81,2.74v41.98c0,.29,.29,.58,.58,.58h9.86c8.64,0,10.66-5.4,10.66-9.65,0-4.82-2.95-8.71-10.3-9.15-1.37-.14-2.38-1.22-2.38-2.59s.94-2.52,2.3-2.81c6.48-1.22,8.42-5.69,8.42-8.21,.07-4.18-3.46-7.49-7.92-7.42l-7.06,.07c-1.51,0-2.67-1.22-2.67-2.66,0-1.51,1.15-2.66,2.67-2.66h6.62c7.49-.22,14.04,5.11,13.83,12.75-.14,4.25-2.16,7.63-4.97,9.94-.22,.14-.14,.5,.07,.58,3.96,2.23,6.98,5.83,6.98,11.88,0,9.86-6.12,15.27-16.06,15.27Z"/><path class="cls-1" d="M590.93,152.85l18.36,45.8c.79,1.73,0,3.46-1.8,3.82-2.16,.36-3.38-.36-4.03-2.09-1.3-3.17-3.82-10.01-4.46-11.67-.07-.29-.36-.5-.72-.5h-13.25c-1.51,0-2.74-1.22-2.74-2.74s1.22-2.81,2.74-2.81h11.09c.29,0,.5-.22,.36-.5-1.37-3.38-7.42-18.43-9.07-22.68-.07-.22-.36-.22-.43,0-1.94,4.97-11.74,31.61-15.12,40.18-.72,1.73-2.23,2.59-4.03,2.3-1.44-.29-2.45-1.94-1.94-3.31l18.22-45.72c.58-1.44,1.94-2.38,3.46-2.38s2.88,.94,3.38,2.3Z"/></g><g><path class="cls-3" d="M5.47,198.79c0,1.51-1.22,2.74-2.74,2.74s-2.74-1.22-2.74-2.74v-45.58c0-1.51,1.22-2.74,2.74-2.74s2.74,1.22,2.74,2.74v45.58Zm30.75-45.44v45.72c0,1.44-1.15,2.66-2.66,2.66s-2.66-1.22-2.66-2.66v-20.95c0-.29-.22-.5-.58-.5H11.67c-1.44,0-2.66-1.22-2.66-2.74s1.22-2.66,2.66-2.66H30.31c.36,0,.58-.22,.58-.5v-18.36c0-1.44,1.22-2.66,2.66-2.66,1.51,0,2.66,1.22,2.66,2.66Z"/><path class="cls-3" d="M52.7,199c0,1.51-1.22,2.74-2.74,2.74s-2.81-1.22-2.81-2.74v-45.58c0-1.51,1.3-2.74,2.81-2.74s2.74,1.22,2.74,2.74v45.58Z"/><path class="cls-3" d="M90.15,174.81h13.46c2.02,0,3.6,1.66,3.6,3.6v20.38c0,1.51-1.22,2.74-2.74,2.74s-2.74-1.44-2.74-2.95v-3.02c0-.14-.29-.29-.43-.14-3.31,4.18-8.57,6.62-15.26,6.62-16.92,0-22.9-13.1-22.47-27.36,.36-17.28,12.1-24.7,23.4-24.48,9.43,0,16.06,5.33,18.43,10.66,.58,1.37-.43,3.46-1.94,3.67-1.51,.14-2.95-.22-3.74-1.87-2.02-3.96-6.41-7.06-12.96-7.06-7.85-.22-16.92,4.32-17.64,18.94-.58,11.3,4.25,22.03,16.63,22.32,8.42,.36,15.05-5.76,15.99-14.83v-1.3c0-.29-.29-.5-.58-.5h-11.02c-1.44,0-2.66-1.22-2.66-2.74s1.22-2.66,2.66-2.66Z"/><path class="cls-3" d="M139.39,152.85l18.36,45.8c.79,1.73,0,3.46-1.8,3.82-2.16,.36-3.38-.36-4.03-2.09-1.3-3.17-3.82-10.01-4.46-11.67-.07-.29-.36-.5-.72-.5h-13.25c-1.51,0-2.74-1.22-2.74-2.74s1.22-2.81,2.74-2.81h11.09c.29,0,.5-.22,.36-.5-1.37-3.38-7.42-18.43-9.07-22.68-.07-.22-.36-.22-.43,0-1.94,4.97-11.74,31.61-15.12,40.18-.72,1.73-2.23,2.59-4.03,2.3-1.44-.29-2.45-1.94-1.94-3.31l18.22-45.72c.58-1.44,1.94-2.38,3.46-2.38s2.88,.94,3.38,2.3Z"/><path class="cls-3" d="M201.46,187.05c0,6.34-4.61,15.19-18.94,14.98-10.8,0-16.06-4.97-17.5-11.45-.36-1.51,1.22-3.02,2.74-3.02s2.45,1.44,3.1,2.88c1.8,4.1,5.26,6.55,11.59,6.84,10.37,.43,13.54-5.83,13.54-10.23,0-3.24-1.08-7.78-10.44-9.14-13.03-1.8-20.52-4.9-20.67-14.62,0-7.85,6.05-12.82,17.5-12.96,5.9,0,11.74,1.58,16.2,4.46,1.44,.86,2.09,2.52,1.58,4.1-.43,1.3-2.23,2.45-3.6,1.58-4.46-2.74-8.21-4.46-13.68-4.61-7.42-.36-12.31,2.09-12.46,7.06,0,5.18,3.96,7.85,15.7,9.5,10.01,1.44,15.55,6.84,15.34,14.62Z"/><path class="cls-3" d="M214.27,198.79c0,1.51-1.22,2.74-2.74,2.74s-2.74-1.22-2.74-2.74v-45.58c0-1.51,1.22-2.74,2.74-2.74s2.74,1.22,2.74,2.74v45.58Zm30.75-45.44v45.72c0,1.44-1.15,2.66-2.67,2.66s-2.66-1.22-2.66-2.66v-20.95c0-.29-.22-.5-.58-.5h-18.65c-1.44,0-2.66-1.22-2.66-2.74s1.22-2.66,2.66-2.66h18.65c.36,0,.58-.22,.58-.5v-18.36c0-1.44,1.22-2.66,2.66-2.66,1.51,0,2.67,1.22,2.67,2.66Z"/><path class="cls-3" d="M261.5,199c0,1.51-1.22,2.74-2.74,2.74s-2.81-1.22-2.81-2.74v-45.58c0-1.51,1.3-2.74,2.81-2.74s2.74,1.22,2.74,2.74v45.58Z"/><path class="cls-3" d="M368.79,153.49l-12.24,44.86c-.5,1.87-2.16,3.17-4.1,3.17s-3.74-1.22-4.46-3.02c-2.3-6.12-7.49-19.66-9-23.55-.07-.14-.36-.14-.43,0-1.51,3.82-6.77,17.28-9.14,23.33-.79,1.87-2.59,3.17-4.61,3.17s-3.74-1.37-4.25-3.31l-11.45-44.64c-.36-1.44,.94-2.81,2.38-2.81,1.66,0,3.17,.72,3.6,2.38,2.09,8.5,8.35,34.2,9.86,40.04,.07,.22,.29,.22,.36,0,1.8-4.46,7.27-18.43,9.58-24.19,.58-1.51,2.02-2.52,3.67-2.52s3.1,1.01,3.74,2.52c2.23,5.83,7.78,19.87,9.58,24.34,.07,.22,.29,.14,.36,0,1.58-5.76,8.42-31.9,10.73-40.4,.43-1.66,1.87-2.16,3.6-2.16,1.44,0,2.59,1.37,2.23,2.81Z"/><path class="cls-3" d="M401.47,152.85l18.36,45.8c.79,1.73,0,3.46-1.8,3.82-2.16,.36-3.38-.36-4.03-2.09-1.3-3.17-3.82-10.01-4.46-11.67-.07-.29-.36-.5-.72-.5h-13.25c-1.51,0-2.74-1.22-2.74-2.74s1.22-2.81,2.74-2.81h11.09c.29,0,.5-.22,.36-.5-1.37-3.38-7.42-18.43-9.07-22.68-.07-.22-.36-.22-.43,0-1.94,4.97-11.74,31.61-15.12,40.18-.72,1.73-2.23,2.59-4.03,2.3-1.44-.29-2.45-1.94-1.94-3.31l18.22-45.72c.58-1.44,1.94-2.38,3.46-2.38s2.88,.94,3.38,2.3Z"/><path class="cls-3" d="M433.8,199c0,1.51-1.22,2.74-2.81,2.74s-2.74-1.22-2.74-2.74v-45.58c0-1.51,1.22-2.74,2.74-2.74s2.81,1.22,2.81,2.74v45.58Zm29.38,2.45c-2.09,.79-3.1,.07-4.61-1.58l-20.38-23.04c-1.37-1.44-1.44-3.74,0-5.26l18.15-18.72c.94-.94,2.3-1.51,4.03-.86,1.3,1.01,1.66,2.88,.86,3.82-5.26,5.62-15.63,15.41-18,18-.22,.22-.22,.58,0,.79,2.59,2.74,15.19,16.71,20.88,22.68,1.51,1.51,.22,3.74-.94,4.18Z"/><path class="cls-3" d="M496.51,152.85l18.36,45.8c.79,1.73,0,3.46-1.8,3.82-2.16,.36-3.38-.36-4.03-2.09-1.3-3.17-3.82-10.01-4.46-11.67-.07-.29-.36-.5-.72-.5h-13.25c-1.51,0-2.74-1.22-2.74-2.74s1.22-2.81,2.74-2.81h11.09c.29,0,.5-.22,.36-.5-1.37-3.38-7.42-18.43-9.07-22.68-.07-.22-.36-.22-.43,0-1.94,4.97-11.74,31.61-15.12,40.18-.72,1.73-2.23,2.59-4.03,2.3-1.44-.29-2.45-1.94-1.94-3.31l18.22-45.72c.58-1.44,1.94-2.38,3.46-2.38s2.88,.94,3.38,2.3Z"/><path class="cls-3" d="M539.49,201.31h-12.6c-2.02,0-3.6-1.58-3.6-3.6v-44.28c0-1.51,1.22-2.74,2.74-2.74s2.81,1.22,2.81,2.74v41.98c0,.29,.29,.58,.58,.58h9.86c8.64,0,10.66-5.4,10.66-9.65,0-4.82-2.95-8.71-10.3-9.15-1.37-.14-2.38-1.22-2.38-2.59s.94-2.52,2.3-2.81c6.48-1.22,8.42-5.69,8.42-8.21,.07-4.18-3.46-7.49-7.92-7.42l-7.06,.07c-1.51,0-2.67-1.22-2.67-2.66,0-1.51,1.15-2.66,2.67-2.66h6.62c7.49-.22,14.04,5.11,13.83,12.75-.14,4.25-2.16,7.63-4.97,9.94-.22,.14-.14,.5,.07,.58,3.96,2.23,6.98,5.83,6.98,11.88,0,9.86-6.12,15.27-16.06,15.27Z"/><path class="cls-3" d="M588.09,152.85l18.36,45.8c.79,1.73,0,3.46-1.8,3.82-2.16,.36-3.38-.36-4.03-2.09-1.3-3.17-3.82-10.01-4.46-11.67-.07-.29-.36-.5-.72-.5h-13.25c-1.51,0-2.74-1.22-2.74-2.74s1.22-2.81,2.74-2.81h11.09c.29,0,.5-.22,.36-.5-1.37-3.38-7.42-18.43-9.07-22.68-.07-.22-.36-.22-.43,0-1.94,4.97-11.74,31.61-15.12,40.18-.72,1.73-2.23,2.59-4.03,2.3-1.44-.29-2.45-1.94-1.94-3.31l18.22-45.72c.58-1.44,1.94-2.38,3.46-2.38s2.88,.94,3.38,2.3Z"/></g></g></g></svg>