<?xml version="1.0" encoding="UTF-8"?><svg id="_レイヤー_2" xmlns="http://www.w3.org/2000/svg" viewBox="0 0 652.96 66.07"><defs><style>.cls-1{fill:#fff;}.cls-2{fill:#f5d92b;}.cls-3{fill:#231815;}</style></defs><g id="_レイヤー_1-2"><circle class="cls-2" cx="259.11" cy="48.27" r="12.51"/><circle class="cls-2" cx="168.98" cy="48.27" r="15.19"/><circle class="cls-2" cx="19.23" cy="49.8" r="12.51"/><circle class="cls-2" cx="537.02" cy="5.45" r="5.45"/><circle class="cls-2" cx="432.89" cy="5.45" r="5.45"/><circle class="cls-2" cx="432.89" cy="41.45" r="14.85"/><g><g><path class="cls-1" d="M39.41,50.73c0,6.34-4.61,15.19-18.94,14.98-10.8,0-16.06-4.97-17.5-11.45-.36-1.51,1.22-3.02,2.74-3.02s2.45,1.44,3.1,2.88c1.8,4.1,5.26,6.55,11.59,6.84,10.37,.43,13.54-5.83,13.54-10.23,0-3.24-1.08-7.78-10.44-9.14-13.03-1.8-20.52-4.9-20.67-14.62,0-7.85,6.05-12.82,17.5-12.96,5.9,0,11.74,1.58,16.2,4.46,1.44,.86,2.09,2.52,1.58,4.1-.43,1.3-2.23,2.45-3.6,1.58-4.46-2.74-8.21-4.46-13.68-4.61-7.42-.36-12.31,2.09-12.46,7.06,0,5.18,3.96,7.85,15.7,9.5,10.01,1.44,15.55,6.84,15.34,14.62Z"/><path class="cls-1" d="M52.23,62.47c0,1.51-1.22,2.74-2.74,2.74s-2.74-1.22-2.74-2.74V16.89c0-1.51,1.22-2.74,2.74-2.74s2.74,1.22,2.74,2.74V62.47Zm30.75-45.44V62.76c0,1.44-1.15,2.66-2.66,2.66s-2.66-1.22-2.66-2.66v-20.95c0-.29-.22-.5-.58-.5h-18.65c-1.44,0-2.66-1.22-2.66-2.74s1.22-2.66,2.66-2.66h18.65c.36,0,.58-.22,.58-.5V17.03c0-1.44,1.22-2.66,2.66-2.66,1.51,0,2.66,1.22,2.66,2.66Z"/><path class="cls-1" d="M99.46,62.69c0,1.51-1.22,2.74-2.74,2.74s-2.81-1.22-2.81-2.74V17.11c0-1.51,1.3-2.74,2.81-2.74s2.74,1.22,2.74,2.74V62.69Z"/><path class="cls-1" d="M111.05,16.31c0-1.51,1.3-2.81,2.81-2.81s2.81,1.22,2.81,2.81V62.83c0,1.51-1.3,2.81-2.81,2.81s-2.81-1.3-2.81-2.81V16.31Zm42.41,.43V61.75c0,1.94-.72,3.53-3.46,3.46-2.09-.07-3.67-.43-4.75-2.23l-26.07-45.58c-.72-1.22,.36-2.81,1.8-2.74,1.51,0,3.1-.36,4.54,2.16,4.75,8.28,18.5,32.76,21.96,38.74,.07,.22,.43,.14,.43-.07V16.75c0-1.58,1.22-2.81,2.74-2.81s2.81,1.22,2.81,2.81Z"/><path class="cls-1" d="M186,17.32V50.59c0,11.23-5.26,15.48-13.18,15.48s-12.96-4.32-14.04-11.52c-.29-1.87,1.3-2.88,2.38-2.88,1.51,0,2.74,1.15,3.02,2.59,.94,4.25,3.96,6.41,8.93,6.26,4.82-.14,6.98-3.02,7.27-8.93v-.07c-.07-1.08,0-25.78,0-34.2,0-1.51,1.3-2.74,2.81-2.74s2.81,1.22,2.81,2.74Z"/><path class="cls-1" d="M212.43,32.44c1.01,1.37,.94,3.17-.14,4.39-.94,1.08-2.66,1.01-3.53-.14l-14.11-19.44c-.79-1.15,.22-3.02,1.58-3.02,2.09,0,3.17,.22,4.39,1.94l11.81,16.27Zm22.83-15.12c-4.46,6.41-15.27,21.67-16.99,24.19-.22,.22-.29,.43-.29,.72v20.52c0,1.51-1.22,2.74-2.74,2.74s-2.74-1.22-2.74-2.74v-20.02c0-1.87,.58-3.38,1.58-4.9l15.27-21.6c1.22-1.73,2.3-1.66,4.46-1.66,1.44,0,2.3,1.58,1.44,2.74Z"/><path class="cls-1" d="M261.75,65.57c-11.45-.22-18.22-8.06-18.07-20.95V17.18c0-1.51,1.22-2.66,2.66-2.66,1.51,0,2.74,1.15,2.74,2.66v27.43c0,7.49,3.38,15.63,12.89,15.7,7.92,.22,12.53-5.04,13.03-14.69V17.18c0-1.51,1.22-2.66,2.74-2.66s2.66,1.15,2.66,2.66v28.8c-.29,14.26-10.3,19.8-18.65,19.59Z"/><path class="cls-1" d="M294.94,62.69c0,1.51-1.22,2.74-2.81,2.74s-2.74-1.22-2.74-2.74V17.11c0-1.51,1.22-2.74,2.74-2.74s2.81,1.22,2.81,2.74V62.69Zm29.38,2.45c-2.09,.79-3.1,.07-4.61-1.58l-20.38-23.04c-1.37-1.44-1.44-3.74,0-5.26l18.15-18.72c.94-.94,2.3-1.51,4.03-.86,1.3,1.01,1.66,2.88,.86,3.82-5.26,5.62-15.63,15.41-18,18-.22,.22-.22,.58,0,.79,2.59,2.74,15.19,16.71,20.88,22.68,1.51,1.51,.22,3.74-.94,4.18Z"/><path class="cls-1" d="M351.82,65.57c-11.45-.22-18.22-8.06-18.07-20.95V17.18c0-1.51,1.22-2.66,2.66-2.66,1.51,0,2.74,1.15,2.74,2.66v27.43c0,7.49,3.38,15.63,12.89,15.7,7.92,.22,12.53-5.04,13.03-14.69V17.18c0-1.51,1.22-2.66,2.74-2.66s2.66,1.15,2.66,2.66v28.8c-.29,14.26-10.3,19.8-18.65,19.59Z"/><path class="cls-1" d="M440.45,38.49h13.47c2.02,0,3.6,1.66,3.6,3.6v20.38c0,1.51-1.22,2.74-2.74,2.74s-2.74-1.44-2.74-2.95v-3.02c0-.14-.29-.29-.43-.14-3.31,4.18-8.57,6.62-15.27,6.62-16.92,0-22.9-13.1-22.47-27.36,.36-17.28,12.1-24.7,23.4-24.48,9.43,0,16.06,5.33,18.43,10.66,.58,1.37-.43,3.46-1.94,3.67-1.51,.14-2.95-.22-3.74-1.87-2.02-3.96-6.41-7.06-12.96-7.06-7.85-.22-16.92,4.32-17.64,18.94-.58,11.3,4.25,22.03,16.63,22.32,8.42,.36,15.05-5.76,15.99-14.83v-1.3c0-.29-.29-.5-.58-.5h-11.02c-1.44,0-2.66-1.22-2.66-2.74s1.22-2.66,2.66-2.66Z"/><path class="cls-1" d="M485.23,32.44c1.01,1.37,.94,3.17-.14,4.39-.94,1.08-2.66,1.01-3.53-.14l-14.11-19.44c-.79-1.15,.22-3.02,1.58-3.02,2.09,0,3.17,.22,4.39,1.94l11.81,16.27Zm22.83-15.12c-4.46,6.41-15.27,21.67-16.99,24.19-.22,.22-.29,.43-.29,.72v20.52c0,1.51-1.22,2.74-2.74,2.74s-2.74-1.22-2.74-2.74v-20.02c0-1.87,.58-3.38,1.58-4.9l15.27-21.6c1.22-1.73,2.3-1.66,4.46-1.66,1.44,0,2.3,1.58,1.44,2.74Z"/><path class="cls-1" d="M561.99,40.51c-.22,15.12-9.22,25.06-22.61,25.2-8.14,0-22.47-5.04-22.68-25.99,0-16.06,8.57-25.78,22.68-25.78,3.67-.14,8.28,.36,11.74,2.52,1.94,1.22,2.23,2.59,2.02,3.96-.29,1.58-2.38,2.38-3.6,1.51-2.81-1.94-5.76-2.66-10.15-2.66-10.94,.29-17.35,6.55-17.07,20.23,.36,15.77,8.71,20.67,17.07,20.81,10.01,.22,16.71-8.64,16.99-19.87,.22-4.39-.79-8.06-2.88-12.17-.43-.86,.29-2.81,2.16-2.81,1.73,0,3.31,.86,4.25,3.02,1.44,3.6,2.16,7.92,2.09,12.02Z"/><path class="cls-1" d="M601.37,64.99h-26.35c-1.94,0-3.6-1.58-3.6-3.6V18.19c0-2.02,1.66-3.6,3.6-3.6h26.35c1.44,0,2.66,1.15,2.66,2.66s-1.22,2.66-2.66,2.66h-23.83c-.29,0-.5,.22-.5,.58V59.09c0,.29,.22,.58,.5,.58h23.83c1.44,0,2.66,1.15,2.66,2.66s-1.22,2.66-2.66,2.66Zm-15.99-28.51h14.26c1.44,0,2.66,1.15,2.66,2.66s-1.22,2.66-2.66,2.66h-14.26c-1.44,0-2.67-1.22-2.67-2.66,0-1.51,1.22-2.66,2.67-2.66Z"/><path class="cls-1" d="M613.39,16.31c0-1.51,1.3-2.81,2.81-2.81s2.81,1.22,2.81,2.81V62.83c0,1.51-1.3,2.81-2.81,2.81s-2.81-1.3-2.81-2.81V16.31Zm42.41,.43V61.75c0,1.94-.72,3.53-3.46,3.46-2.09-.07-3.67-.43-4.75-2.23l-26.07-45.58c-.72-1.22,.36-2.81,1.8-2.74,1.51,0,3.1-.36,4.54,2.16,4.75,8.28,18.51,32.76,21.96,38.74,.07,.22,.43,.14,.43-.07V16.75c0-1.58,1.22-2.81,2.74-2.81s2.81,1.22,2.81,2.81Z"/></g><g><path class="cls-3" d="M36.58,50.73c0,6.34-4.61,15.19-18.94,14.98C6.84,65.71,1.58,60.74,.14,54.26c-.36-1.51,1.22-3.02,2.74-3.02s2.45,1.44,3.1,2.88c1.8,4.1,5.26,6.55,11.59,6.84,10.37,.43,13.54-5.83,13.54-10.23,0-3.24-1.08-7.78-10.44-9.14C7.63,39.79,.14,36.69,0,26.97c0-7.85,6.05-12.82,17.5-12.96,5.9,0,11.74,1.58,16.2,4.46,1.44,.86,2.09,2.52,1.58,4.1-.43,1.3-2.23,2.45-3.6,1.58-4.46-2.74-8.21-4.46-13.68-4.61-7.42-.36-12.31,2.09-12.46,7.06,0,5.18,3.96,7.85,15.7,9.5,10.01,1.44,15.55,6.84,15.34,14.62Z"/><path class="cls-3" d="M49.39,62.47c0,1.51-1.22,2.74-2.74,2.74s-2.74-1.22-2.74-2.74V16.89c0-1.51,1.22-2.74,2.74-2.74s2.74,1.22,2.74,2.74V62.47Zm30.75-45.44V62.76c0,1.44-1.15,2.66-2.66,2.66s-2.66-1.22-2.66-2.66v-20.95c0-.29-.22-.5-.58-.5h-18.65c-1.44,0-2.66-1.22-2.66-2.74s1.22-2.66,2.66-2.66h18.65c.36,0,.58-.22,.58-.5V17.03c0-1.44,1.22-2.66,2.66-2.66,1.51,0,2.66,1.22,2.66,2.66Z"/><path class="cls-3" d="M96.62,62.69c0,1.51-1.22,2.74-2.74,2.74s-2.81-1.22-2.81-2.74V17.11c0-1.51,1.3-2.74,2.81-2.74s2.74,1.22,2.74,2.74V62.69Z"/><path class="cls-3" d="M108.21,16.31c0-1.51,1.3-2.81,2.81-2.81s2.81,1.22,2.81,2.81V62.83c0,1.51-1.3,2.81-2.81,2.81s-2.81-1.3-2.81-2.81V16.31Zm42.41,.43V61.75c0,1.94-.72,3.53-3.46,3.46-2.09-.07-3.67-.43-4.75-2.23l-26.07-45.58c-.72-1.22,.36-2.81,1.8-2.74,1.51,0,3.1-.36,4.54,2.16,4.75,8.28,18.5,32.76,21.96,38.74,.07,.22,.43,.14,.43-.07V16.75c0-1.58,1.22-2.81,2.74-2.81s2.81,1.22,2.81,2.81Z"/><path class="cls-3" d="M183.17,17.32V50.59c0,11.23-5.26,15.48-13.18,15.48s-12.96-4.32-14.04-11.52c-.29-1.87,1.3-2.88,2.38-2.88,1.51,0,2.74,1.15,3.02,2.59,.94,4.25,3.96,6.41,8.93,6.26,4.82-.14,6.98-3.02,7.27-8.93v-.07c-.07-1.08,0-25.78,0-34.2,0-1.51,1.3-2.74,2.81-2.74s2.81,1.22,2.81,2.74Z"/><path class="cls-3" d="M209.59,32.44c1.01,1.37,.94,3.17-.14,4.39-.94,1.08-2.66,1.01-3.53-.14l-14.11-19.44c-.79-1.15,.22-3.02,1.58-3.02,2.09,0,3.17,.22,4.39,1.94l11.81,16.27Zm22.83-15.12c-4.46,6.41-15.27,21.67-16.99,24.19-.22,.22-.29,.43-.29,.72v20.52c0,1.51-1.22,2.74-2.74,2.74s-2.74-1.22-2.74-2.74v-20.02c0-1.87,.58-3.38,1.58-4.9l15.27-21.6c1.22-1.73,2.3-1.66,4.46-1.66,1.44,0,2.3,1.58,1.44,2.74Z"/><path class="cls-3" d="M258.91,65.57c-11.45-.22-18.22-8.06-18.07-20.95V17.18c0-1.51,1.22-2.66,2.66-2.66,1.51,0,2.74,1.15,2.74,2.66v27.43c0,7.49,3.38,15.63,12.89,15.7,7.92,.22,12.53-5.04,13.03-14.69V17.18c0-1.51,1.22-2.66,2.74-2.66s2.66,1.15,2.66,2.66v28.8c-.29,14.26-10.3,19.8-18.65,19.59Z"/><path class="cls-3" d="M292.1,62.69c0,1.51-1.22,2.74-2.81,2.74s-2.74-1.22-2.74-2.74V17.11c0-1.51,1.22-2.74,2.74-2.74s2.81,1.22,2.81,2.74V62.69Zm29.38,2.45c-2.09,.79-3.1,.07-4.61-1.58l-20.38-23.04c-1.37-1.44-1.44-3.74,0-5.26l18.15-18.72c.94-.94,2.3-1.51,4.03-.86,1.3,1.01,1.66,2.88,.86,3.82-5.26,5.62-15.63,15.41-18,18-.22,.22-.22,.58,0,.79,2.59,2.74,15.19,16.71,20.88,22.68,1.51,1.51,.22,3.74-.94,4.18Z"/><path class="cls-3" d="M348.98,65.57c-11.45-.22-18.22-8.06-18.07-20.95V17.18c0-1.51,1.22-2.66,2.66-2.66,1.51,0,2.74,1.15,2.74,2.66v27.43c0,7.49,3.38,15.63,12.89,15.7,7.92,.22,12.53-5.04,13.03-14.69V17.18c0-1.51,1.22-2.66,2.74-2.66s2.66,1.15,2.66,2.66v28.8c-.29,14.26-10.3,19.8-18.65,19.59Z"/><path class="cls-3" d="M437.61,38.49h13.47c2.02,0,3.6,1.66,3.6,3.6v20.38c0,1.51-1.22,2.74-2.74,2.74s-2.74-1.44-2.74-2.95v-3.02c0-.14-.29-.29-.43-.14-3.31,4.18-8.57,6.62-15.27,6.62-16.92,0-22.9-13.1-22.47-27.36,.36-17.28,12.1-24.7,23.4-24.48,9.43,0,16.06,5.33,18.43,10.66,.58,1.37-.43,3.46-1.94,3.67-1.51,.14-2.95-.22-3.74-1.87-2.02-3.96-6.41-7.06-12.96-7.06-7.85-.22-16.92,4.32-17.64,18.94-.58,11.3,4.25,22.03,16.63,22.32,8.42,.36,15.05-5.76,15.99-14.83v-1.3c0-.29-.29-.5-.58-.5h-11.02c-1.44,0-2.66-1.22-2.66-2.74s1.22-2.66,2.66-2.66Z"/><path class="cls-3" d="M482.4,32.44c1.01,1.37,.94,3.17-.14,4.39-.94,1.08-2.66,1.01-3.53-.14l-14.11-19.44c-.79-1.15,.22-3.02,1.58-3.02,2.09,0,3.17,.22,4.39,1.94l11.81,16.27Zm22.83-15.12c-4.46,6.41-15.27,21.67-16.99,24.19-.22,.22-.29,.43-.29,.72v20.52c0,1.51-1.22,2.74-2.74,2.74s-2.74-1.22-2.74-2.74v-20.02c0-1.87,.58-3.38,1.58-4.9l15.27-21.6c1.22-1.73,2.3-1.66,4.46-1.66,1.44,0,2.3,1.58,1.44,2.74Z"/><path class="cls-3" d="M559.15,40.51c-.22,15.12-9.22,25.06-22.61,25.2-8.14,0-22.47-5.04-22.68-25.99,0-16.06,8.57-25.78,22.68-25.78,3.67-.14,8.28,.36,11.74,2.52,1.94,1.22,2.23,2.59,2.02,3.96-.29,1.58-2.38,2.38-3.6,1.51-2.81-1.94-5.76-2.66-10.15-2.66-10.94,.29-17.35,6.55-17.07,20.23,.36,15.77,8.71,20.67,17.07,20.81,10.01,.22,16.71-8.64,16.99-19.87,.22-4.39-.79-8.06-2.88-12.17-.43-.86,.29-2.81,2.16-2.81,1.73,0,3.31,.86,4.25,3.02,1.44,3.6,2.16,7.92,2.09,12.02Z"/><path class="cls-3" d="M598.53,64.99h-26.35c-1.94,0-3.6-1.58-3.6-3.6V18.19c0-2.02,1.66-3.6,3.6-3.6h26.35c1.44,0,2.66,1.15,2.66,2.66s-1.22,2.66-2.66,2.66h-23.83c-.29,0-.5,.22-.5,.58V59.09c0,.29,.22,.58,.5,.58h23.83c1.44,0,2.66,1.15,2.66,2.66s-1.22,2.66-2.66,2.66Zm-15.99-28.51h14.26c1.44,0,2.66,1.15,2.66,2.66s-1.22,2.66-2.66,2.66h-14.26c-1.44,0-2.67-1.22-2.67-2.66,0-1.51,1.22-2.66,2.67-2.66Z"/><path class="cls-3" d="M610.55,16.31c0-1.51,1.3-2.81,2.81-2.81s2.81,1.22,2.81,2.81V62.83c0,1.51-1.3,2.81-2.81,2.81s-2.81-1.3-2.81-2.81V16.31Zm42.41,.43V61.75c0,1.94-.72,3.53-3.46,3.46-2.09-.07-3.67-.43-4.75-2.23l-26.07-45.58c-.72-1.22,.36-2.81,1.8-2.74,1.51,0,3.1-.36,4.54,2.16,4.75,8.28,18.51,32.76,21.96,38.74,.07,.22,.43,.14,.43-.07V16.75c0-1.58,1.22-2.81,2.74-2.81s2.81,1.22,2.81,2.81Z"/></g></g></g></svg>