<?xml version="1.0" encoding="UTF-8"?><svg id="_レイヤー_2" xmlns="http://www.w3.org/2000/svg" xmlns:xlink="http://www.w3.org/1999/xlink" viewBox="0 0 504.86 57.72"><defs><style>.cls-1{fill:#f5d92b;}.cls-2{filter:url(#drop-shadow-1);}.cls-3{fill:#231815;}</style><filter id="drop-shadow-1" filterUnits="userSpaceOnUse"><feOffset dx="2.83" dy="0"/><feGaussianBlur result="blur" stdDeviation="0"/><feFlood flood-color="#fff" flood-opacity="1"/><feComposite in2="blur" operator="in"/><feComposite in="SourceGraphic"/></filter></defs><g id="_レイヤー_1-2"><circle class="cls-1" cx="358.04" cy="38.05" r="12.51"/><circle class="cls-1" cx="173.96" cy="36.77" r="12.51"/><circle class="cls-1" cx="60.09" cy="36.77" r="12.51"/><circle class="cls-1" cx="447.92" cy="5.45" r="5.45"/><circle class="cls-1" cx="358.04" cy="5.45" r="5.45"/><g class="cls-2"><path class="cls-3" d="M36.58,42.74c0,6.34-4.61,15.19-18.94,14.98C6.84,57.72,1.58,52.75,.14,46.27c-.36-1.51,1.22-3.02,2.74-3.02s2.45,1.44,3.1,2.88c1.8,4.1,5.26,6.55,11.59,6.84,10.37,.43,13.54-5.83,13.54-10.23,0-3.24-1.08-7.78-10.44-9.14C7.63,31.8,.14,28.7,0,18.98,0,11.13,6.05,6.16,17.5,6.02c5.9,0,11.74,1.58,16.2,4.46,1.44,.86,2.09,2.52,1.58,4.1-.43,1.3-2.23,2.45-3.6,1.58-4.46-2.74-8.21-4.46-13.68-4.61-7.42-.36-12.31,2.09-12.46,7.06,0,5.18,3.96,7.85,15.7,9.5,10.01,1.44,15.55,6.84,15.34,14.62Z"/><path class="cls-3" d="M77.33,39.21c-.72,10.66-5.26,17.79-17.07,17.79-9.86-.22-15.99-7.34-16.35-18.72-.29-14.33,7.7-19.95,16.35-20.09,2.45-.14,5.26,.43,7.56,1.37,2.45,.94,2.59,2.88,2.3,4.03-.29,1.3-2.02,1.94-3.17,1.37-1.66-.86-4.39-1.44-6.41-1.44-7.78,.22-11.38,5.33-11.16,14.26,.14,6.55,2.3,13.68,11.02,14.04,8.35,.22,11.02-5.76,11.31-12.82,.07-1.87-.07-4.82-1.01-7.63-.43-1.22,.43-2.66,1.73-2.74,1.73-.14,3.24,.94,3.74,2.52,.86,2.81,1.22,5.83,1.15,8.06Z"/><path class="cls-3" d="M103.68,55.13c-1.44,.79-3.24,1.22-5.18,1.3-9.58,.29-12.96-6.19-12.96-13.18V21.64c0-1.44,1.15-2.66,2.66-2.66s2.66,1.22,2.66,2.66v21.17c.22,5.33,1.51,8.57,7.56,8.5,2.09-.14,3.46-1.08,4.18-1.58,1.01-.72,2.45-.29,2.88,.94,.58,1.73-.14,3.6-1.8,4.46Zm9.43-33.63V54.12c0,1.51-1.22,2.66-2.66,2.66-1.51,0-2.74-1.15-2.74-2.66V21.5c0-1.51,1.22-2.74,2.74-2.74s2.66,1.22,2.66,2.74Z"/><path class="cls-3" d="M149.04,44.68c.22,7.92-6.98,11.95-13.03,12.1-6.98,.22-12.46-2.59-14.26-7.78-.58-1.66,.58-3.31,2.52-3.38,1.51-.07,2.66,.72,3.24,2.16,.94,2.3,3.46,3.74,8.42,3.67,5.33-.14,7.85-3.53,7.71-6.48-.14-3.02-1.66-4.46-6.7-5.33-10.15-1.8-14.83-4.82-15.19-10.37-.5-8.78,7.42-10.95,12.96-10.95,3.1,0,6.91,.79,10.01,2.45,1.51,.86,2.66,2.23,2.45,3.96-.22,1.44-2.16,2.52-3.31,1.73-3.31-2.23-6.77-3.1-9.07-3.1-5.26,0-7.63,1.66-7.63,5.04,.22,3.24,3.96,4.68,10.8,5.98,7.78,1.37,11.09,5.33,11.09,10.3Z"/><path class="cls-3" d="M171.79,33.52h12.24c.29,0,.58-.29,.5-.58-.58-5.69-4.03-9-9.79-9-8.42,0-11.67,6.41-11.95,12.39-.36,8.93,3.67,15.62,12.39,15.62,3.96,0,7.27-1.87,8.64-5.04,.86-2.09,1.44-2.59,3.46-2.45,1.44,.14,2.59,1.8,2.16,3.24-1.66,5.76-6.26,9.65-14.4,9.65-9.94,.07-18.51-7.06-17.93-21.24,.5-10.8,7.78-17.71,17.71-17.43,10.22,.07,15.19,7.27,15.55,16.42,.07,2.09-1.51,3.74-3.6,3.74h-15.12c-1.44,0-2.74-1.22-2.74-2.66,.07-1.51,1.37-2.66,2.88-2.66Z"/><path class="cls-3" d="M205.34,54.55c0,1.44-1.22,2.66-2.66,2.66-1.51,0-2.74-1.22-2.74-2.66V8.11c0-1.44,1.22-2.66,2.74-2.66s2.66,1.22,2.66,2.66V54.55Zm22.68,2.16c-2.3,.14-3.53-.94-4.46-1.94l-15.27-17.43c-1.37-1.51-1.3-3.82,.22-5.18l13.46-12.89c1.01-.94,2.59-1.37,4.1-1.01,1.8,.5,1.8,2.88,1.15,3.53-4.03,3.89-11.88,10.66-13.75,12.53-.22,.14-.29,.5-.07,.72,2.09,2.38,11.81,12.75,16.35,17.79,1.22,1.37,.29,3.74-1.73,3.89Z"/><path class="cls-3" d="M247.25,8.18v4.18c0,1.51-1.22,2.74-2.74,2.74s-2.81-1.22-2.81-2.74v-4.18c0-1.51,1.22-2.74,2.81-2.74s2.74,1.22,2.74,2.74Zm0,13.54V54.05c0,1.51-1.22,2.74-2.74,2.74s-2.81-1.22-2.81-2.74V21.71c0-1.58,1.22-2.81,2.81-2.81s2.74,1.22,2.74,2.81Z"/><path class="cls-3" d="M302.61,54.55c0,1.44-1.22,2.66-2.66,2.66-1.51,0-2.74-1.22-2.74-2.66V8.11c0-1.44,1.22-2.66,2.74-2.66s2.66,1.22,2.66,2.66V54.55Zm22.68,2.16c-2.3,.14-3.53-.94-4.46-1.94l-15.27-17.43c-1.37-1.51-1.3-3.82,.22-5.18l13.46-12.89c1.01-.94,2.59-1.37,4.1-1.01,1.8,.5,1.8,2.88,1.15,3.53-4.03,3.89-11.88,10.66-13.75,12.53-.22,.14-.29,.5-.07,.72,2.09,2.38,11.81,12.75,16.35,17.79,1.22,1.37,.29,3.74-1.73,3.89Z"/><path class="cls-3" d="M373.68,39.21c-.72,10.66-5.26,17.79-17.07,17.79-9.87-.22-15.99-7.34-16.35-18.72-.29-14.33,7.7-19.95,16.35-20.09,2.45-.14,5.26,.43,7.56,1.37,2.45,.94,2.59,2.88,2.3,4.03-.29,1.3-2.02,1.94-3.17,1.37-1.66-.86-4.39-1.44-6.41-1.44-7.78,.22-11.38,5.33-11.16,14.26,.14,6.55,2.3,13.68,11.02,14.04,8.35,.22,11.02-5.76,11.3-12.82,.07-1.87-.07-4.82-1.01-7.63-.43-1.22,.43-2.66,1.73-2.74,1.73-.14,3.24,.94,3.74,2.52,.86,2.81,1.22,5.83,1.15,8.06Z"/><path class="cls-3" d="M405.43,55.13c-1.44,.79-3.24,1.22-5.18,1.3-9.58,.29-12.96-6.19-12.96-13.18V21.64c0-1.44,1.15-2.66,2.67-2.66s2.66,1.22,2.66,2.66v21.17c.22,5.33,1.51,8.57,7.56,8.5,2.09-.14,3.46-1.08,4.18-1.58,1.01-.72,2.45-.29,2.88,.94,.58,1.73-.14,3.6-1.8,4.46Zm9.43-33.63V54.12c0,1.51-1.22,2.66-2.67,2.66-1.51,0-2.74-1.15-2.74-2.66V21.5c0-1.51,1.22-2.74,2.74-2.74s2.67,1.22,2.67,2.74Z"/><path class="cls-3" d="M443.37,33.52h12.24c.29,0,.58-.29,.5-.58-.58-5.69-4.03-9-9.79-9-8.42,0-11.67,6.41-11.95,12.39-.36,8.93,3.67,15.62,12.39,15.62,3.96,0,7.27-1.87,8.64-5.04,.86-2.09,1.44-2.59,3.46-2.45,1.44,.14,2.59,1.8,2.16,3.24-1.66,5.76-6.26,9.65-14.4,9.65-9.94,.07-18.51-7.06-17.93-21.24,.5-10.8,7.78-17.71,17.71-17.43,10.22,.07,15.19,7.27,15.55,16.42,.07,2.09-1.51,3.74-3.6,3.74h-15.12c-1.44,0-2.74-1.22-2.74-2.66,.07-1.51,1.37-2.66,2.88-2.66Z"/><path class="cls-3" d="M481.1,54.12c0,1.51-1.22,2.66-2.74,2.66s-2.66-1.15-2.66-2.66V21.64c0-1.51,1.22-2.74,2.66-2.74,1.51,0,2.74,1.22,2.74,2.74V54.12Zm18.22-21.53c.29-5.4-2.3-8.71-7.27-8.78-2.23,0-3.53,.79-6.41,2.09-1.08,.5-3.24-.36-3.53-1.66-.36-1.73,.79-2.81,2.38-3.6,3.38-1.73,6.77-2.02,7.63-1.94,7.85,.14,12.53,4.46,12.75,13.75v21.6c0,1.51-1.22,2.74-2.81,2.74s-2.74-1.22-2.74-2.74v-21.46Z"/></g></g></svg>